<?xml version="1.0" encoding="UTF-8" standalone="no"?><!DOCTYPE svg PUBLIC "-//W3C//DTD SVG 1.1//EN" "http://www.w3.org/Graphics/SVG/1.1/DTD/svg11.dtd"><svg width="100%" height="100%" viewBox="0 0 398 227" version="1.1" xmlns="http://www.w3.org/2000/svg" xmlns:xlink="http://www.w3.org/1999/xlink" xml:space="preserve" style="fill-rule:evenodd;clip-rule:evenodd;stroke-linejoin:round;stroke-miterlimit:1.41421;"><g id="la-grande-course"><rect x="0.107" y="0.008" width="397.123" height="226.161" style="fill:#a7d060;"/><rect x="0.107" y="116.996" width="397.123" height="108.744" style="fill:#235ba8;"/><g><path d="M20.681,161.327c0,-4.62 0.742,-8.925 2.226,-12.915c1.485,-3.99 3.516,-7.47 6.094,-10.44c2.578,-2.97 5.625,-5.295 9.14,-6.975c3.516,-1.68 7.331,-2.52 11.445,-2.52c3.75,0 6.979,0.525 9.687,1.575c2.709,1.05 4.974,2.175 6.797,3.375c2.083,1.5 3.88,3.15 5.39,4.95l-9.374,17.1c-0.938,-0.9 -1.953,-1.71 -3.047,-2.43c-0.937,-0.66 -2.018,-1.245 -3.242,-1.755c-1.224,-0.51 -2.513,-0.765 -3.867,-0.765c-2.76,0 -5.013,1.005 -6.758,3.015c-1.744,2.01 -2.617,4.605 -2.617,7.785c0,3.18 0.873,5.775 2.617,7.785c1.745,2.01 3.998,3.015 6.758,3.015c1.354,0 2.643,-0.24 3.867,-0.72c1.224,-0.48 2.305,-1.05 3.242,-1.71c1.094,-0.72 2.109,-1.56 3.047,-2.52l9.374,17.1c-1.51,1.86 -3.307,3.51 -5.39,4.95c-1.823,1.26 -4.088,2.4 -6.797,3.42c-2.708,1.02 -5.937,1.53 -9.687,1.53c-4.114,0 -7.929,-0.84 -11.445,-2.52c-3.515,-1.68 -6.562,-4.005 -9.14,-6.975c-2.578,-2.97 -4.609,-6.45 -6.094,-10.44c-1.484,-3.99 -2.226,-8.295 -2.226,-12.915Z" style="fill:#a7d060;fill-rule:nonzero;"/><path d="M73.804,168.977c0,-3.48 0.586,-6.75 1.758,-9.81c1.172,-3.06 2.799,-5.73 4.883,-8.01c2.083,-2.28 4.583,-4.08 7.499,-5.4c2.917,-1.32 6.146,-1.98 9.688,-1.98c3.489,0 6.705,0.66 9.648,1.98c2.942,1.32 5.455,3.12 7.538,5.4c2.084,2.28 3.711,4.95 4.883,8.01c1.172,3.06 1.758,6.33 1.758,9.81c0,3.48 -0.586,6.75 -1.758,9.81c-1.172,3.06 -2.799,5.73 -4.883,8.01c-2.083,2.28 -4.596,4.08 -7.538,5.4c-2.943,1.32 -6.159,1.98 -9.648,1.98c-3.542,0 -6.771,-0.66 -9.688,-1.98c-2.916,-1.32 -5.416,-3.12 -7.499,-5.4c-2.084,-2.28 -3.711,-4.95 -4.883,-8.01c-1.172,-3.06 -1.758,-6.33 -1.758,-9.81Zm28.905,0c0,-2.04 -0.507,-3.675 -1.523,-4.905c-1.016,-1.23 -2.2,-1.845 -3.554,-1.845c-1.355,0 -2.539,0.615 -3.555,1.845c-1.016,1.23 -1.523,2.865 -1.523,4.905c0,2.04 0.507,3.675 1.523,4.905c1.016,1.23 2.2,1.845 3.555,1.845c1.354,0 2.538,-0.615 3.554,-1.845c1.016,-1.23 1.523,-2.865 1.523,-4.905Z" style="fill:#a7d060;fill-rule:nonzero;"/><path d="M141.771,194.177c-1.979,0 -3.815,-0.465 -5.508,-1.395c-1.693,-0.93 -3.177,-2.355 -4.453,-4.275c-1.276,-1.92 -2.278,-4.395 -3.008,-7.425c-0.729,-3.03 -1.093,-6.615 -1.093,-10.755l0,-25.2l18.749,0l0,25.2c0,1.8 0.326,3.15 0.977,4.05c0.651,0.9 1.367,1.35 2.148,1.35c0.781,0 1.497,-0.45 2.148,-1.35c0.651,-0.9 0.977,-2.25 0.977,-4.05l0,-25.2l18.749,0l0,47.7l-17.968,0l-1.562,-5.4c-0.677,1.26 -1.485,2.4 -2.422,3.42c-0.833,0.84 -1.888,1.605 -3.164,2.295c-1.276,0.69 -2.8,1.035 -4.57,1.035Z" style="fill:#a7d060;fill-rule:nonzero;"/><path d="M198.8,150.527c0.625,-1.2 1.406,-2.31 2.344,-3.33c0.781,-0.84 1.758,-1.62 2.929,-2.34c1.172,-0.72 2.539,-1.08 4.102,-1.08c0.781,0 1.497,0.075 2.148,0.225c0.651,0.15 1.237,0.315 1.758,0.495c0.573,0.24 1.094,0.45 1.562,0.63l-3.124,19.8c-0.625,-0.36 -1.25,-0.66 -1.875,-0.9c-0.573,-0.24 -1.172,-0.45 -1.797,-0.63c-0.625,-0.18 -1.224,-0.27 -1.797,-0.27c-1.979,0 -3.646,0.855 -5,2.565c-1.354,1.71 -2.031,4.155 -2.031,7.335l0,19.8l-18.749,0l0,-47.7l17.968,0l1.562,5.4Z" style="fill:#a7d060;fill-rule:nonzero;"/><path d="M251.533,178.427c0,2.16 -0.391,4.185 -1.172,6.075c-0.781,1.89 -1.94,3.555 -3.476,4.995c-1.537,1.44 -3.451,2.58 -5.742,3.42c-2.292,0.84 -4.948,1.26 -7.969,1.26c-3.281,0 -6.12,-0.435 -8.515,-1.305c-2.396,-0.87 -4.427,-1.845 -6.094,-2.925c-1.927,-1.26 -3.567,-2.7 -4.922,-4.32l5.86,-10.8c0.781,0.84 1.666,1.59 2.656,2.25c0.885,0.6 1.914,1.125 3.086,1.575c1.171,0.45 2.513,0.675 4.023,0.675c0.573,0 1.042,-0.18 1.406,-0.54c0.365,-0.36 0.547,-0.78 0.547,-1.26c0,-0.42 -0.378,-0.84 -1.133,-1.26c-0.755,-0.42 -1.692,-0.9 -2.812,-1.44c-1.12,-0.54 -2.344,-1.185 -3.672,-1.935c-1.328,-0.75 -2.552,-1.71 -3.672,-2.88c-1.119,-1.17 -2.057,-2.61 -2.812,-4.32c-0.755,-1.71 -1.133,-3.765 -1.133,-6.165c0,-2.16 0.391,-4.185 1.172,-6.075c0.781,-1.89 1.94,-3.555 3.476,-4.995c1.537,-1.44 3.451,-2.58 5.742,-3.42c2.292,-0.84 4.948,-1.26 7.969,-1.26c2.656,0 5.039,0.405 7.148,1.215c2.109,0.81 3.919,1.695 5.43,2.655c1.718,1.08 3.255,2.34 4.609,3.78l-5.859,10.8c-0.625,-0.66 -1.328,-1.26 -2.11,-1.8c-0.677,-0.48 -1.471,-0.9 -2.382,-1.26c-0.912,-0.36 -1.888,-0.54 -2.93,-0.54c-0.573,0 -1.042,0.18 -1.406,0.54c-0.365,0.36 -0.547,0.78 -0.547,1.26c0,0.48 0.378,0.915 1.133,1.305c0.755,0.39 1.692,0.855 2.812,1.395c1.12,0.54 2.344,1.185 3.672,1.935c1.328,0.75 2.552,1.71 3.672,2.88c1.119,1.17 2.057,2.61 2.812,4.32c0.755,1.71 1.133,3.765 1.133,6.165Z" style="fill:#a7d060;fill-rule:nonzero;"/><path d="M277.313,143.777c3.021,0 5.859,0.66 8.516,1.98c2.656,1.32 4.973,3.12 6.953,5.4c1.979,2.28 3.541,4.95 4.687,8.01c1.146,3.06 1.719,6.33 1.719,9.81l0,4.5l-25,0c0.209,0.96 0.599,1.8 1.172,2.52c0.469,0.66 1.172,1.23 2.11,1.71c0.937,0.48 2.187,0.72 3.749,0.72c0.99,0 1.914,-0.18 2.774,-0.54c0.859,-0.36 1.601,-0.78 2.226,-1.26c0.729,-0.54 1.406,-1.14 2.031,-1.8l6.641,12.15c-1.146,1.32 -2.552,2.52 -4.219,3.6c-1.406,0.9 -3.125,1.725 -5.156,2.475c-2.031,0.75 -4.375,1.125 -7.031,1.125c-3.333,0 -6.406,-0.66 -9.218,-1.98c-2.813,-1.32 -5.248,-3.12 -7.305,-5.4c-2.057,-2.28 -3.659,-4.95 -4.804,-8.01c-1.146,-3.06 -1.719,-6.33 -1.719,-9.81c0,-3.48 0.573,-6.75 1.719,-9.81c1.145,-3.06 2.708,-5.73 4.687,-8.01c1.979,-2.28 4.297,-4.08 6.953,-5.4c2.656,-1.32 5.495,-1.98 8.515,-1.98Zm3.516,21.15c0,-1.8 -0.339,-3.15 -1.016,-4.05c-0.677,-0.9 -1.51,-1.35 -2.5,-1.35c-0.989,0 -1.823,0.45 -2.5,1.35c-0.677,0.9 -1.015,2.25 -1.015,4.05l7.031,0Z" style="fill:#a7d060;fill-rule:nonzero;"/></g><g><path d="M32.904,106.177c0.429,-0.072 0.673,-0.432 0.796,-1.152l0.979,-6.84c0.122,-0.864 -0.245,-1.224 -0.979,-1.152c-0.367,0 -0.796,0 -1.224,0c-2.203,0 -2.938,-1.944 -2.387,-5.4l5.386,-36.144c0.122,-0.792 -0.245,-1.368 -0.918,-1.368l-7.1,0c-0.612,0 -0.979,0.432 -1.101,1.152l-5.386,35.784c-1.346,9.36 2.081,15.48 8.691,15.48c1.285,0 2.386,-0.144 3.243,-0.36Z" style="fill:#235ba8;fill-rule:nonzero;"/><path d="M64.728,104.017c0.551,-0.216 0.796,-0.72 0.918,-1.368l2.754,-18.216c1.653,-10.8 -2.631,-17.28 -10.955,-17.28c-4.957,0 -9.547,1.296 -12.484,3.384c-0.368,0.288 -0.368,0.792 -0.184,1.44l1.897,5.904c0.245,0.792 0.735,0.936 1.408,0.576c1.836,-1.008 4.59,-1.656 7.283,-1.656c3.855,0 4.712,1.944 4.161,5.472l-0.122,1.152c-1.53,-0.36 -3.366,-0.576 -5.202,-0.576c-7.834,0 -12.852,3.096 -13.893,10.08c-1.224,7.848 3.122,13.608 11.69,13.608c4.712,0 9.241,-1.08 12.729,-2.52Zm-15.3,-10.512c0.306,-2.16 1.897,-3.312 4.896,-3.312c1.347,0 2.754,0.216 3.917,0.504l-0.857,6.264c-1.101,0.288 -2.815,0.576 -4.223,0.576c-2.692,0 -4.161,-1.296 -3.733,-4.032Z" style="fill:#235ba8;fill-rule:nonzero;"/><path d="M122.379,99.625c0.367,-0.36 0.489,-0.792 0.612,-1.368l3.182,-21.24c0.122,-0.792 -0.245,-1.368 -0.918,-1.368l-14.81,0c-0.612,0 -1.041,0.432 -1.102,1.152l-1.04,6.84c-0.123,0.792 0.244,1.368 0.918,1.368l6.487,0l-1.408,9c-1.775,1.152 -4.284,1.872 -6.854,1.944c-4.223,0 -6.12,-3.672 -5.447,-8.496l2.203,-15.12c0.735,-5.472 3.856,-8.712 8.323,-8.712c3.55,0 6.426,1.224 8.63,3.096c0.55,0.36 1.04,0.36 1.468,-0.288l4.713,-6.264c0.367,-0.576 0.428,-1.224 -0.123,-1.8c-3.427,-3.168 -8.262,-5.184 -13.708,-5.184c-9.731,0 -17.381,6.336 -19.095,18.072l-2.203,15.408c-1.652,11.304 4.1,19.8 13.77,19.8c6.181,0 12.362,-2.664 16.402,-6.84Z" style="fill:#235ba8;fill-rule:nonzero;"/><path d="M140.937,105.601c0.72,0 1.152,-0.432 1.296,-1.152l4.68,-26.568c1.224,-0.504 2.808,-0.864 4.68,-0.864c1.512,0 2.952,0.144 4.176,0.36c0.792,0.072 1.368,-0.288 1.44,-1.08l1.296,-7.056c0.144,-0.72 -0.216,-1.296 -1.008,-1.44c-2.088,-0.432 -4.032,-0.648 -5.976,-0.648c-4.536,0 -9.144,1.08 -13.32,3.024c-0.576,0.288 -0.936,0.72 -1.08,1.368l-5.688,32.688c-0.144,0.792 0.288,1.368 1.152,1.368l8.352,0Z" style="fill:#235ba8;fill-rule:nonzero;"/><path d="M188.601,104.017c0.648,-0.216 0.936,-0.72 1.08,-1.368l3.24,-18.216c1.944,-10.8 -3.096,-17.28 -12.888,-17.28c-5.832,0 -11.232,1.296 -14.688,3.384c-0.432,0.288 -0.432,0.792 -0.216,1.44l2.232,5.904c0.288,0.792 0.864,0.936 1.656,0.576c2.16,-1.008 5.4,-1.656 8.568,-1.656c4.536,0 5.544,1.944 4.896,5.472l-0.144,1.152c-1.8,-0.36 -3.96,-0.576 -6.12,-0.576c-9.216,0 -15.12,3.096 -16.344,10.08c-1.44,7.848 3.672,13.608 13.752,13.608c5.544,0 10.872,-1.08 14.976,-2.52Zm-18,-10.512c0.36,-2.16 2.232,-3.312 5.76,-3.312c1.584,0 3.24,0.216 4.608,0.504l-1.008,6.264c-1.296,0.288 -3.312,0.576 -4.968,0.576c-3.168,0 -4.896,-1.296 -4.392,-4.032Z" style="fill:#235ba8;fill-rule:nonzero;"/><path d="M209.553,105.601c0.792,0 1.224,-0.36 1.368,-1.152l4.752,-27c1.08,-0.504 2.88,-0.864 4.608,-0.864c3.816,0 5.4,2.088 4.536,6.624l-3.6,21.024c-0.072,0.792 0.36,1.368 1.152,1.368l8.28,0c0.792,0 1.224,-0.432 1.368,-1.152l3.6,-20.16c1.8,-10.224 -3.096,-17.136 -13.968,-17.136c-4.68,0 -10.08,1.152 -14.616,2.88c-0.648,0.288 -0.936,0.72 -1.08,1.296l-5.904,32.904c-0.144,0.792 0.288,1.368 1.152,1.368l8.352,0Z" style="fill:#235ba8;fill-rule:nonzero;"/><path d="M273.273,103.873c0.648,-0.216 1.008,-0.648 1.08,-1.296l8.28,-47.088c0.144,-0.792 -0.288,-1.368 -1.152,-1.368l-8.352,0c-0.72,0 -1.152,0.432 -1.296,1.152l-2.376,13.392c-1.8,-0.936 -4.32,-1.512 -6.984,-1.512c-8.568,0 -15.12,5.832 -16.632,14.4l-1.512,8.28c-1.656,9.576 4.104,16.704 14.544,16.704c4.752,0 10.296,-1.008 14.4,-2.664Zm-18,-13.248l1.368,-7.704c0.792,-4.392 3.024,-6.552 6.48,-6.552c1.8,0 3.6,0.432 4.752,1.224l-3.24,18.576c-1.152,0.504 -3.024,0.792 -4.752,0.792c-3.888,0 -5.472,-1.8 -4.608,-6.336Z" style="fill:#235ba8;fill-rule:nonzero;"/><path d="M288.537,80.977l-1.872,10.44c-1.656,9.36 4.896,15.12 14.328,15.12c6.264,0 11.16,-1.728 15.048,-4.392c0.648,-0.36 0.72,-1.008 0.432,-1.728l-2.952,-5.544c-0.36,-0.792 -0.936,-0.864 -1.656,-0.36c-2.88,1.728 -6.192,2.88 -9.36,2.88c-3.96,0 -5.688,-1.872 -4.968,-5.688l0.216,-1.008l20.016,0c0.72,0 1.152,-0.36 1.296,-1.08l1.224,-6.984c1.944,-10.584 -4.608,-15.48 -13.824,-15.48c-8.712,0 -16.2,4.392 -17.928,13.824Zm21.024,2.52l-10.512,0l0.36,-1.944c0.648,-3.384 3.024,-5.256 6.12,-5.256c3.672,0 4.896,2.52 4.392,5.4l-0.36,1.8Z" style="fill:#235ba8;fill-rule:nonzero;"/></g><g><path d="M318.275,192.197c0.113,0 0.179,0.103 0.196,0.31c0.017,0.207 -0.051,0.433 -0.204,0.68c-0.153,0.247 -0.408,0.473 -0.765,0.68c-0.357,0.207 -0.848,0.31 -1.471,0.31c-0.351,0 -0.754,-0.083 -1.207,-0.25c-0.453,-0.167 -0.929,-0.373 -1.428,-0.62c-0.499,-0.247 -1.011,-0.517 -1.538,-0.81c-0.527,-0.293 -1.04,-0.563 -1.539,-0.81c-0.499,-0.247 -0.972,-0.453 -1.419,-0.62c-0.448,-0.167 -0.842,-0.25 -1.182,-0.25c-0.238,0.2 -0.501,0.35 -0.79,0.45c-0.289,0.1 -0.576,0.137 -0.859,0.11c-0.397,-0.027 -0.737,-0.153 -1.02,-0.38c-0.283,-0.227 -0.425,-0.553 -0.425,-0.98c0,-0.4 0.128,-0.69 0.383,-0.87c0.255,-0.18 0.535,-0.303 0.841,-0.37c0.363,-0.067 0.771,-0.08 1.224,-0.04c0.487,-0.92 0.907,-1.92 1.258,-3c0.351,-1.08 0.683,-2.163 0.995,-3.25c0.311,-1.087 0.631,-2.137 0.96,-3.15c0.329,-1.013 0.717,-1.91 1.165,-2.69c0.447,-0.78 0.98,-1.403 1.598,-1.87c0.617,-0.467 1.379,-0.7 2.286,-0.7c0.612,0 1.051,0.207 1.318,0.62c0.266,0.413 0.399,1.033 0.399,1.86c0,0.133 -0.025,0.343 -0.076,0.63c-0.051,0.287 -0.114,0.617 -0.187,0.99c-0.074,0.373 -0.156,0.77 -0.247,1.19c-0.091,0.42 -0.173,0.823 -0.246,1.21c-0.074,0.387 -0.136,0.743 -0.187,1.07c-0.051,0.327 -0.077,0.583 -0.077,0.77c0,0.12 -0.071,0.18 -0.212,0.18c-0.142,0 -0.295,-0.067 -0.459,-0.2c-0.165,-0.133 -0.318,-0.343 -0.459,-0.63c-0.142,-0.287 -0.213,-0.65 -0.213,-1.09c0,-0.293 0.045,-0.62 0.136,-0.98c0.091,-0.36 0.196,-0.723 0.315,-1.09c0.119,-0.367 0.243,-0.723 0.374,-1.07c0.13,-0.347 0.232,-0.653 0.306,-0.92c0.073,-0.267 0.107,-0.48 0.102,-0.64c-0.006,-0.16 -0.077,-0.24 -0.213,-0.24c-0.476,0 -0.909,0.27 -1.3,0.81c-0.391,0.54 -0.757,1.233 -1.097,2.08c-0.34,0.847 -0.669,1.787 -0.986,2.82c-0.317,1.033 -0.632,2.053 -0.943,3.06c-0.312,1.007 -0.632,1.933 -0.961,2.78c-0.329,0.847 -0.686,1.503 -1.071,1.97c0.703,0.2 1.366,0.507 1.989,0.92c0.623,0.413 1.221,0.83 1.794,1.25c0.572,0.42 1.122,0.787 1.649,1.1c0.527,0.313 1.045,0.47 1.555,0.47c0.419,0 0.734,-0.04 0.944,-0.12c0.209,-0.08 0.365,-0.17 0.467,-0.27c0.102,-0.1 0.184,-0.193 0.247,-0.28c0.062,-0.087 0.155,-0.13 0.28,-0.13Z" style="fill:#a7d060;fill-rule:nonzero;"/><path d="M316.422,191.697c-0.295,0 -0.567,-0.1 -0.816,-0.3c-0.249,-0.2 -0.363,-0.44 -0.34,-0.72c0.011,-0.2 0.074,-0.413 0.187,-0.64c0.113,-0.227 0.252,-0.43 0.417,-0.61c0.164,-0.18 0.345,-0.33 0.544,-0.45c0.198,-0.12 0.382,-0.18 0.552,-0.18c0.261,0 0.473,0.09 0.638,0.27c0.164,0.18 0.235,0.437 0.212,0.77c-0.011,0.173 -0.054,0.367 -0.127,0.58c-0.074,0.213 -0.173,0.417 -0.298,0.61c-0.125,0.193 -0.269,0.353 -0.433,0.48c-0.165,0.127 -0.343,0.19 -0.536,0.19Z" style="fill:#a7d060;fill-rule:nonzero;"/><path d="M331.637,189.657c-0.023,0.133 -0.034,0.283 -0.034,0.45c0,0.167 0.011,0.29 0.034,0.37c0.034,0.12 -0.014,0.253 -0.144,0.4c-0.131,0.147 -0.36,0.22 -0.689,0.22c-0.113,0 -0.272,-0.04 -0.476,-0.12c-0.204,-0.08 -0.399,-0.21 -0.586,-0.39c-0.187,-0.18 -0.346,-0.413 -0.476,-0.7c-0.131,-0.287 -0.173,-0.63 -0.128,-1.03c0.023,-0.253 0.13,-0.69 0.323,-1.31c0.193,-0.62 0.422,-1.35 0.689,-2.19c0.266,-0.84 0.555,-1.763 0.867,-2.77c0.311,-1.007 0.597,-2.023 0.858,-3.05c-0.204,0.36 -0.473,0.833 -0.807,1.42c-0.335,0.587 -0.697,1.233 -1.088,1.94c-0.391,0.707 -0.791,1.44 -1.199,2.2c-0.408,0.76 -0.788,1.493 -1.139,2.2c-0.351,0.707 -0.652,1.35 -0.901,1.93c-0.249,0.58 -0.408,1.043 -0.476,1.39c0.034,0.12 -0.014,0.253 -0.144,0.4c-0.131,0.147 -0.36,0.22 -0.689,0.22c-0.102,0 -0.241,-0.027 -0.416,-0.08c-0.176,-0.053 -0.343,-0.15 -0.502,-0.29c-0.159,-0.14 -0.289,-0.337 -0.391,-0.59c-0.102,-0.253 -0.13,-0.58 -0.085,-0.98c0.023,-0.187 0.088,-0.5 0.196,-0.94c0.107,-0.44 0.246,-0.97 0.416,-1.59c0.17,-0.62 0.36,-1.307 0.57,-2.06c0.209,-0.753 0.422,-1.54 0.637,-2.36c0.215,-0.82 0.428,-1.657 0.638,-2.51c0.209,-0.853 0.399,-1.687 0.569,-2.5c-0.374,0.72 -0.824,1.553 -1.351,2.5c-0.527,0.947 -1.1,1.927 -1.717,2.94c-0.618,1.013 -1.267,2.01 -1.947,2.99c-0.68,0.98 -1.354,1.857 -2.023,2.63c-0.669,0.773 -1.315,1.397 -1.938,1.87c-0.623,0.473 -1.196,0.71 -1.717,0.71c-0.385,0 -0.703,-0.047 -0.952,-0.14c-0.249,-0.093 -0.448,-0.203 -0.595,-0.33c-0.147,-0.127 -0.249,-0.26 -0.306,-0.4c-0.057,-0.14 -0.079,-0.257 -0.068,-0.35c0.011,-0.093 0.04,-0.15 0.085,-0.17c0.045,-0.02 0.102,-0.02 0.17,0c0.068,0.02 0.15,0.047 0.247,0.08c0.096,0.033 0.201,0.05 0.314,0.05c0.487,0 1.017,-0.19 1.59,-0.57c0.572,-0.38 1.161,-0.887 1.768,-1.52c0.606,-0.633 1.221,-1.367 1.844,-2.2c0.623,-0.833 1.233,-1.697 1.828,-2.59c0.595,-0.893 1.17,-1.793 1.725,-2.7c0.555,-0.907 1.063,-1.753 1.522,-2.54c0.459,-0.787 0.867,-1.487 1.224,-2.1c0.357,-0.613 0.637,-1.073 0.841,-1.38c0,-0.067 0.006,-0.12 0.017,-0.16c0.023,-0.187 0.113,-0.26 0.272,-0.22c0.011,-0.013 0.023,-0.02 0.034,-0.02c0.113,0 0.198,0.04 0.255,0.12c0.17,0.093 0.36,0.233 0.57,0.42c0.209,0.187 0.399,0.387 0.569,0.6c0.17,0.213 0.312,0.427 0.425,0.64c0.113,0.213 0.164,0.393 0.153,0.54c-0.011,0.12 -0.071,0.38 -0.178,0.78c-0.108,0.4 -0.238,0.88 -0.391,1.44c-0.153,0.56 -0.318,1.163 -0.493,1.81c-0.176,0.647 -0.343,1.277 -0.502,1.89c-0.159,0.613 -0.297,1.177 -0.416,1.69c-0.119,0.513 -0.19,0.91 -0.213,1.19c-0.034,0.067 -0.062,0.173 -0.085,0.32c0.363,-0.653 0.765,-1.383 1.207,-2.19c0.442,-0.807 0.89,-1.637 1.343,-2.49c0.453,-0.853 0.901,-1.713 1.343,-2.58c0.442,-0.867 0.85,-1.693 1.224,-2.48c0.011,-0.107 0.023,-0.203 0.034,-0.29c0.011,-0.087 0.023,-0.177 0.034,-0.27c0.011,-0.16 0.077,-0.24 0.196,-0.24c0.119,0 0.263,0.053 0.433,0.16c0.17,0.107 0.349,0.253 0.536,0.44c0.187,0.187 0.359,0.383 0.518,0.59c0.159,0.207 0.283,0.41 0.374,0.61c0.091,0.2 0.13,0.367 0.119,0.5c-0.011,0.12 -0.091,0.423 -0.238,0.91c-0.147,0.487 -0.334,1.087 -0.561,1.8c-0.227,0.713 -0.473,1.51 -0.739,2.39c-0.267,0.88 -0.522,1.77 -0.765,2.67c-0.244,0.9 -0.462,1.783 -0.655,2.65c-0.193,0.867 -0.323,1.64 -0.391,2.32Z" style="fill:#a7d060;fill-rule:nonzero;"/><path d="M335.241,191.697c-0.295,0 -0.567,-0.1 -0.816,-0.3c-0.249,-0.2 -0.363,-0.44 -0.34,-0.72c0.011,-0.2 0.074,-0.413 0.187,-0.64c0.113,-0.227 0.252,-0.43 0.417,-0.61c0.164,-0.18 0.345,-0.33 0.544,-0.45c0.198,-0.12 0.382,-0.18 0.552,-0.18c0.261,0 0.473,0.09 0.638,0.27c0.164,0.18 0.235,0.437 0.212,0.77c-0.011,0.173 -0.054,0.367 -0.127,0.58c-0.074,0.213 -0.173,0.417 -0.298,0.61c-0.125,0.193 -0.269,0.353 -0.433,0.48c-0.165,0.127 -0.343,0.19 -0.536,0.19Z" style="fill:#a7d060;fill-rule:nonzero;"/></g></g></svg>